HIERARCHY
ROOT Hips
{
    OFFSET   0.000000   0.000000   0.000000
    CHANNELS 6 Xposition Yposition Zposition Zrotation Xrotation Yrotation
    JOINT Chest
    {
        OFFSET   0.000000   8.007230   0.000000
        CHANNELS 3 Zrotation Xrotation Yrotation
        JOINT Chest2
        {
            OFFSET   0.000000  22.077100   0.000000
            CHANNELS 3 Zrotation Xrotation Yrotation
            JOINT Neck
            {
                OFFSET   0.000000  23.254800   0.000000
                CHANNELS 3 Zrotation Xrotation Yrotation
                JOINT Head
                {
                    OFFSET   0.000010  14.370000   1.956600
                    CHANNELS 3 Zrotation Xrotation Yrotation
                    End Site
                    {
                        OFFSET   0.000000  19.566000   0.000000
                    }
                }
            }
            JOINT LeftCollar
            {
                OFFSET   3.911900  19.017000  -0.467062
                CHANNELS 3 Zrotation Xrotation Yrotation
                JOINT LeftShoulder
                {
                    OFFSET  10.383700   0.000000   0.000000
                    CHANNELS 3 Zrotation Xrotation Yrotation
                    JOINT LeftElbow
                    {
                        OFFSET  26.662100   0.001193   0.000835
                        CHANNELS 3 Zrotation Xrotation Yrotation
                        JOINT LeftWrist
                        {
                            OFFSET  28.869000  -0.000058  -0.000075
                            CHANNELS 3 Zrotation Xrotation Yrotation
                            JOINT LeftFinger0
                            {
                                OFFSET   2.044660  -2.323460   3.252850
                                CHANNELS 3 Zrotation Xrotation Yrotation
                                JOINT LeftFinger01
                                {
                                    OFFSET   3.088130   0.000000   0.000000
                                    CHANNELS 3 Zrotation Xrotation Yrotation
                                    JOINT LeftFinger02
                                    {
                                        OFFSET   2.639450   0.000000   0.000000
                                        CHANNELS 3 Zrotation Xrotation Yrotation
                                        End Site
                                        {
                                            OFFSET   2.582190   0.000000   0.000000
                                        }
                                    }
                                }
                            }
                            JOINT LeftFinger1
                            {
                                OFFSET   8.364480   0.000000   3.252850
                                CHANNELS 3 Zrotation Xrotation Yrotation
                                JOINT LeftFinger11
                                {
                                    OFFSET   4.646920   0.000000   0.000000
                                    CHANNELS 3 Zrotation Xrotation Yrotation
                                    JOINT LeftFinger12
                                    {
                                        OFFSET   2.323460   0.000000   0.000000
                                        CHANNELS 3 Zrotation Xrotation Yrotation
                                        End Site
                                        {
                                            OFFSET   2.273050   0.000000   0.000000
                                        }
                                    }
                                }
                            }
                            JOINT LeftFinger2
                            {
                                OFFSET   8.364490   0.000016   1.078090
                                CHANNELS 3 Zrotation Xrotation Yrotation
                                JOINT LeftFinger21
                                {
                                    OFFSET   5.111620   0.000000   0.000000
                                    CHANNELS 3 Zrotation Xrotation Yrotation
                                    JOINT LeftFinger22
                                    {
                                        OFFSET   2.788150   0.000012   0.000000
                                        CHANNELS 3 Zrotation Xrotation Yrotation
                                        End Site
                                        {
                                            OFFSET   2.727660   0.000000   0.000000
                                        }
                                    }
                                }
                            }
                            JOINT LeftFinger3
                            {
                                OFFSET   7.899780   0.000014  -1.078090
                                CHANNELS 3 Zrotation Xrotation Yrotation
                                JOINT LeftFinger31
                                {
                                    OFFSET   4.646930   0.000000   0.000000
                                    CHANNELS 3 Zrotation Xrotation Yrotation
                                    JOINT LeftFinger32
                                    {
                                        OFFSET   2.323470   0.000000   0.000000
                                        CHANNELS 3 Zrotation Xrotation Yrotation
                                        End Site
                                        {
                                            OFFSET   2.273050   0.000000   0.000000
                                        }
                                    }
                                }
                            }
                            JOINT LeftFinger4
                            {
                                OFFSET   7.435090   0.000000  -3.252850
                                CHANNELS 3 Zrotation Xrotation Yrotation
                                JOINT LeftFinger41
                                {
                                    OFFSET   3.717550   0.000000   0.000000
                                    CHANNELS 3 Zrotation Xrotation Yrotation
                                    JOINT LeftFinger42
                                    {
                                        OFFSET   1.858770   0.000000   0.000000
                                        CHANNELS 3 Zrotation Xrotation Yrotation
                                        End Site
                                        {
                                            OFFSET   1.818440   0.000000   0.000000
                                        }
                                    }
                                }
                            }
                        }
                    }
                }
            }
            JOINT RightCollar
            {
                OFFSET  -3.911900  19.017000  -0.467063
                CHANNELS 3 Zrotation Xrotation Yrotation
                JOINT RightShoulder
                {
                    OFFSET -10.383700   0.000023   0.000000
                    CHANNELS 3 Zrotation Xrotation Yrotation
                    JOINT RightElbow
                    {
                        OFFSET -26.662100   0.001246   0.001011
                        CHANNELS 3 Zrotation Xrotation Yrotation
                        JOINT RightWrist
                        {
                            OFFSET -28.869000  -0.000026  -0.000078
                            CHANNELS 3 Zrotation Xrotation Yrotation
                            JOINT RightFinger0
                            {
                                OFFSET  -2.044660  -2.323490   3.252850
                                CHANNELS 3 Zrotation Xrotation Yrotation
                                JOINT RightFinger01
                                {
                                    OFFSET  -3.088130   0.000000   0.000000
                                    CHANNELS 3 Zrotation Xrotation Yrotation
                                    JOINT RightFinger02
                                    {
                                        OFFSET  -2.639460   0.000000   0.000000
                                        CHANNELS 3 Zrotation Xrotation Yrotation
                                        End Site
                                        {
                                            OFFSET  -2.582190   0.000000   0.000000
                                        }
                                    }
                                }
                            }
                            JOINT RightFinger1
                            {
                                OFFSET  -8.364480   0.000000   3.252850
                                CHANNELS 3 Zrotation Xrotation Yrotation
                                JOINT RightFinger11
                                {
                                    OFFSET  -4.646920   0.000000   0.000000
                                    CHANNELS 3 Zrotation Xrotation Yrotation
                                    JOINT RightFinger12
                                    {
                                        OFFSET  -2.323470   0.000000   0.000000
                                        CHANNELS 3 Zrotation Xrotation Yrotation
                                        End Site
                                        {
                                            OFFSET  -2.273050   0.000000   0.000000
                                        }
                                    }
                                }
                            }
                            JOINT RightFinger2
                            {
                                OFFSET  -8.364480   0.000000   1.078090
                                CHANNELS 3 Zrotation Xrotation Yrotation
                                JOINT RightFinger21
                                {
                                    OFFSET  -5.111620   0.000000   0.000000
                                    CHANNELS 3 Zrotation Xrotation Yrotation
                                    JOINT RightFinger22
                                    {
                                        OFFSET  -2.788160   0.000000   0.000000
                                        CHANNELS 3 Zrotation Xrotation Yrotation
                                        End Site
                                        {
                                            OFFSET  -2.727660   0.000000   0.000000
                                        }
                                    }
                                }
                            }
                            JOINT RightFinger3
                            {
                                OFFSET  -7.899780   0.000000  -1.078090
                                CHANNELS 3 Zrotation Xrotation Yrotation
                                JOINT RightFinger31
                                {
                                    OFFSET  -4.646930   0.000000   0.000000
                                    CHANNELS 3 Zrotation Xrotation Yrotation
                                    JOINT RightFinger32
                                    {
                                        OFFSET  -2.323470   0.000000   0.000000
                                        CHANNELS 3 Zrotation Xrotation Yrotation
                                        End Site
                                        {
                                            OFFSET  -2.273050   0.000000   0.000000
                                        }
                                    }
                                }
                            }
                            JOINT RightFinger4
                            {
                                OFFSET  -7.435090   0.000000  -3.252850
                                CHANNELS 3 Zrotation Xrotation Yrotation
                                JOINT RightFinger41
                                {
                                    OFFSET  -3.717550   0.000000   0.000000
                                    CHANNELS 3 Zrotation Xrotation Yrotation
                                    JOINT RightFinger42
                                    {
                                        OFFSET  -1.858760   0.000000   0.000000
                                        CHANNELS 3 Zrotation Xrotation Yrotation
                                        End Site
                                        {
                                            OFFSET  -1.818440   0.000000   0.000000
                                        }
                                    }
                                }
                            }
                        }
                    }
                }
            }
        }
    }
    JOINT LeftHip
    {
        OFFSET   9.783010   0.000000   0.000000
        CHANNELS 3 Zrotation Xrotation Yrotation
        JOINT LeftKnee
        {
            OFFSET   0.000073 -41.789100   0.001749
            CHANNELS 3 Zrotation Xrotation Yrotation
            JOINT LeftAnkle
            {
                OFFSET   0.000111 -41.133200  -0.000179
                CHANNELS 3 Zrotation Xrotation Yrotation
                JOINT LeftToe
                {
                    OFFSET   0.000000  -6.358960  14.674500
                    CHANNELS 3 Zrotation Xrotation Yrotation
                    End Site
                    {
                        OFFSET   0.000000   0.000000   3.913200
                    }
                }
            }
        }
    }
    JOINT RightHip
    {
        OFFSET  -9.783010   0.000000   0.000000
        CHANNELS 3 Zrotation Xrotation Yrotation
        JOINT RightKnee
        {
            OFFSET   0.000424 -41.789200   0.005205
            CHANNELS 3 Zrotation Xrotation Yrotation
            JOINT RightAnkle
            {
                OFFSET   0.000000 -41.133200  -0.000155
                CHANNELS 3 Zrotation Xrotation Yrotation
                JOINT RightToe
                {
                    OFFSET   0.000000  -6.358960  14.674500
                    CHANNELS 3 Zrotation Xrotation Yrotation
                    End Site
                    {
                        OFFSET   0.000000   0.000000   3.913200
                    }
                }
            }
        }
    }
}
MOTION
Frames: 4
Frame Time:   0.016667
 -0.729876  89.508500  -0.678181  -2.042240  -2.364020  -3.189250   0.622151   1.988530   0.143438   1.240450   3.978500   0.265481   1.729270   0.328169  -0.010571   2.841710   0.665194   4.256310  -4.792390   3.614800  -2.167310 -69.450900  17.270600  -5.754240  -2.893240  -6.639620 -10.913200   4.003800  -9.429620  11.571200  39.335100  26.703000 -66.834900 -17.460900  -0.000265   0.000000  -3.741240   0.013039  -0.001085 -30.959200   8.230940 -13.433800 -26.125400  -0.004397   0.002888 -18.298900   0.000219   0.002986 -28.509300   2.286730  -4.177760 -37.287800  -0.000564   0.002764 -24.833700  -0.001017   0.001628 -28.737100   0.231361  -0.421917 -39.888800  -0.000737   0.005257 -26.565900  -0.001537   0.002693 -36.654200  -0.169397   0.231562 -54.982000  -0.004797   0.002320 -36.618000  -0.008774  -0.000109   7.632400   0.272805  11.018200  70.164000  16.848700  -3.569270   0.215989  -0.273254   9.153750  -8.639150 -15.030200   3.947850 -37.434200  33.262400  70.627000  31.136000  -0.008734   0.005319  10.572300  -0.000383   0.004740  31.228800   4.835530   7.924200  25.825400   0.000918  -0.000862  18.077800   0.012043  -0.006333  28.085200   1.585020   2.967760  32.834300   0.003018  -0.003947  21.867600   0.003105  -0.002461  28.763200   1.497360   2.725550  42.602600  -0.003691  -0.001042  28.373400   0.001634  -0.000826  41.871400  -1.650950  -1.838870  62.847400   0.003943   0.002702  41.856300   0.013258   0.006595   2.726440   5.457740   1.609160   1.048910   0.480375   0.052142  -3.575190  -3.329040  10.158800  -0.000000   0.000000   0.000000   0.372228  -0.024819  -3.964210   1.472460   5.607700   4.761790  -4.872880  -2.939960   1.854220   0.000000   0.000000   0.000000
 -0.733900  89.508400  -0.678030  -2.042720  -2.369030  -3.189230   0.622067   1.991810   0.143744   1.240260   3.985050   0.266067   1.737050   0.328278  -0.010556   2.854300   0.665281   4.233980  -4.794170   3.614890  -2.167300 -69.449600  17.290900  -5.770810  -2.896210  -6.654660 -10.914100   4.003480  -9.432520  11.566200  39.336900  26.721700 -66.853000 -17.469700  -0.000262  -0.000000  -3.741240   0.013066  -0.001127 -30.965300   8.235660 -13.434400 -26.130700  -0.004415   0.002887 -18.298900   0.000205   0.003002 -28.509000   2.286800  -4.183170 -37.299900  -0.000471   0.002782 -24.841700  -0.000963   0.001662 -28.737100   0.231560  -0.422281 -39.901700  -0.000679   0.005338 -26.574500  -0.001500   0.002836 -36.664800  -0.169397   0.231650 -54.997800  -0.004731   0.002360 -36.628500  -0.008818  -0.000070   7.643650   0.250567  11.031800  70.160600  16.854800  -3.584520   0.217171  -0.280958   9.137250  -8.649680 -15.046000   3.937150 -37.422900  33.262400  70.641800  31.144000  -0.008738   0.005348  10.572100  -0.000381   0.004733  31.239400   4.839020   7.924230  25.834200   0.000917  -0.000856  18.084000   0.012045  -0.006325  28.084800   1.590280   2.977520  32.839600   0.003003  -0.003937  21.871200   0.003111  -0.002454  28.762800   1.501430   2.732970  42.614800  -0.003685  -0.001053  28.381500   0.001630  -0.000836  41.873700  -1.650920  -1.838970  62.850800   0.003939   0.002690  41.858600   0.013255   0.006590   2.726410   5.458050   1.609240   1.048820   0.490200   0.051805  -3.574780  -3.334730  10.159300  -0.000000   0.000000   0.000000   0.372901   0.022131  -3.959090   1.474850   5.566010   4.763000  -4.872890  -2.939730   1.854220   0.000000   0.000000  -0.000000
 -0.740645  89.508400  -0.677813  -2.043380  -2.377260  -3.189190   0.621918   1.997300   0.144498   1.239920   3.996040   0.267525   1.750880   0.328387  -0.010526   2.876730   0.665382   4.196180  -4.798000   3.614990  -2.167280 -69.445800  17.310900  -5.795800  -2.899610  -6.669620 -10.918800   4.002440  -9.435560  11.557100  39.342900  26.751200 -66.879800 -17.482500  -0.000258   0.000000  -3.741250   0.013128  -0.001171 -30.974100   8.240380 -13.435000 -26.138300  -0.004457   0.002886 -18.298800   0.000163   0.003039 -28.508700   2.286860  -4.191130 -37.316500  -0.000315   0.002813 -24.852700  -0.000874   0.001720 -28.737100   0.231758  -0.422645 -39.920700  -0.000582   0.005490 -26.587100  -0.001439   0.003101 -36.680300  -0.169398   0.231738 -55.020900  -0.004622   0.002426 -36.643900  -0.008911  -0.000000   7.664720   0.209697  11.056300  70.156100  16.866900  -3.609070   0.220096  -0.299949   9.108670  -8.664010 -15.065900   3.926530 -37.405900  33.266000  70.674200  31.152500  -0.008741   0.005377  10.571700  -0.000377   0.004717  31.258600   4.846930   7.924330  25.850100   0.000911  -0.000845  18.095100   0.012050  -0.006306  28.084100   1.599590   2.994810  32.849700   0.002972  -0.003915  21.877900   0.003123  -0.002432  28.762100   1.507890   2.744730  42.636900  -0.003671  -0.001082  28.396200   0.001621  -0.000861  41.880300  -1.650890  -1.839070  62.860500   0.003929   0.002657  41.865100   0.013247   0.006578   2.726240   5.460240   1.609400   1.048700   0.500024   0.051468  -3.574800  -3.340430  10.160500  -0.000000   0.000000  -0.000000   0.373562   0.069083  -3.951680   1.477240   5.524310   4.764220  -4.872900  -2.939510   1.854210  -0.000000   0.000000   0.000000
 -0.746076  89.508300  -0.677698  -2.043660  -2.383250  -3.189130   0.621749   2.001060   0.145797   1.239540   4.003570   0.270153   1.763650   0.328362  -0.010490   2.897700   0.665181   4.165630  -4.803110   3.614680  -2.165970 -69.441400  17.309100  -5.811250  -2.901820  -6.653380 -10.929100   3.998840  -9.427990  11.545700  39.358500  26.774900 -66.897500 -17.485700  -0.000265  -0.000000  -3.741870   0.013213  -0.001173 -30.978200   8.240390 -13.432300 -26.142300  -0.004519   0.002884 -18.298700   0.000089   0.003093 -28.508500   2.286630  -4.195870 -37.320800  -0.000159   0.002846 -24.855600  -0.000783   0.001777 -28.737300   0.231259  -0.421734 -39.930000  -0.000483   0.005690 -26.593300  -0.001378   0.003445 -36.687600  -0.169467   0.231539 -55.031800  -0.004513   0.002493 -36.651200  -0.009038   0.000088   7.687620   0.171293  11.080100  70.155200  16.881300  -3.630940   0.224600  -0.328944   9.086630  -8.669970 -15.070400   3.931170 -37.395100  33.276200  70.721400  31.152700  -0.008739   0.005353  10.571600  -0.000372   0.004697  31.281900   4.858260   7.933560  25.869800   0.000897  -0.000834  18.108800   0.012060  -0.006275  28.083300   1.607350   3.009060  32.863400   0.002930  -0.003881  21.887000   0.003139  -0.002393  28.761600   1.512130   2.752430  42.664400  -0.003655  -0.001130  28.414500   0.001611  -0.000896  41.895100  -1.651180  -1.838970  62.882600   0.003916   0.002604  41.879800   0.013235   0.006562   2.725730   5.470020   1.609670   1.048650   0.492833   0.051512  -3.575850  -3.336670  10.162200   0.000000   0.000000   0.000000   0.373629   0.018739  -3.947630   1.472940   5.581130   4.763450  -4.876190  -2.941080   1.853310  -0.000000   0.000000   0.000000
